HIERARCHY
ROOT mixamorig:Hips
{
	OFFSET -0.000419 2.091508 -0.014164
	CHANNELS 6 Xposition Yposition Zposition Xrotation Yrotation Zrotation
	JOINT mixamorig:Spine
	{
		OFFSET -0.001948 0.198048 -0.038897
		CHANNELS 6 Xposition Yposition Zposition Xrotation Yrotation Zrotation
		JOINT mixamorig:Spine1
		{
			OFFSET -0.002704 0.235003 -0.023603
			CHANNELS 3 Xrotation Yrotation Zrotation
			JOINT mixamorig:Spine2
			{
				OFFSET -0.001091 0.278075 -0.011954
				CHANNELS 3 Xrotation Yrotation Zrotation
				JOINT mixamorig:Neck
				{
					OFFSET 0.005730 0.310620 0.037617
					CHANNELS 6 Xposition Yposition Zposition Xrotation Yrotation Zrotation
					JOINT mixamorig:Head
					{
						OFFSET 0.010419 0.222311 0.065134
						CHANNELS 6 Xposition Yposition Zposition Xrotation Yrotation Zrotation
						End Site
						{
							OFFSET 0.010419 0.222311 0.065135
						}
					}
				}
				JOINT mixamorig:LeftShoulder
				{
					OFFSET 0.129541 0.188949 0.026781
					CHANNELS 6 Xposition Yposition Zposition Xrotation Yrotation Zrotation
					JOINT mixamorig:LeftArm
					{
						OFFSET 0.262609 0.007741 -0.040542
						CHANNELS 3 Xrotation Yrotation Zrotation
						JOINT mixamorig:LeftForeArm
						{
							OFFSET 0.551277 -0.000001 -0.000000
							CHANNELS 6 Xposition Yposition Zposition Xrotation Yrotation Zrotation
							JOINT mixamorig:LeftHand
							{
								OFFSET 0.527734 -0.000000 0.000000
								CHANNELS 3 Xrotation Yrotation Zrotation
								End Site
								{
									OFFSET 0.527734 0.000000 0.000000
								}
							}
						}
					}
				}
				JOINT mixamorig:RightShoulder
				{
					OFFSET -0.126373 0.192154 0.021809
					CHANNELS 6 Xposition Yposition Zposition Xrotation Yrotation Zrotation
					JOINT mixamorig:RightArm
					{
						OFFSET -0.263354 0.004609 -0.054230
						CHANNELS 3 Xrotation Yrotation Zrotation
						JOINT mixamorig:RightForeArm
						{
							OFFSET -0.558427 -0.000001 -0.000000
							CHANNELS 6 Xposition Yposition Zposition Xrotation Yrotation Zrotation
							JOINT mixamorig:RightHand
							{
								OFFSET -0.503137 0.000000 -0.000000
								CHANNELS 6 Xposition Yposition Zposition Xrotation Yrotation Zrotation
								End Site
								{
									OFFSET -0.503137 0.000000 0.000000
								}
							}
						}
					}
				}
			}
		}
	}
	JOINT mixamorig:LeftUpLeg
	{
		OFFSET 0.185244 -0.138385 0.026620
		CHANNELS 6 Xposition Yposition Zposition Xrotation Yrotation Zrotation
		JOINT mixamorig:LeftLeg
		{
			OFFSET -0.004065 -0.852313 -0.015108
			CHANNELS 3 Xrotation Yrotation Zrotation
			JOINT mixamorig:LeftFoot
			{
				OFFSET 0.004508 -0.854151 -0.051445
				CHANNELS 3 Xrotation Yrotation Zrotation
				JOINT mixamorig:LeftToeBase
				{
					OFFSET 0.026925 -0.213949 0.242907
					CHANNELS 3 Xrotation Yrotation Zrotation
					End Site
					{
						OFFSET -0.005614 0.004268 0.324736
					}
				}
			}
		}
	}
	JOINT mixamorig:RightUpLeg
	{
		OFFSET -0.184403 -0.144117 0.001603
		CHANNELS 6 Xposition Yposition Zposition Xrotation Yrotation Zrotation
		JOINT mixamorig:RightLeg
		{
			OFFSET 0.005492 -0.848120 0.010027
			CHANNELS 6 Xposition Yposition Zposition Xrotation Yrotation Zrotation
			JOINT mixamorig:RightFoot
			{
				OFFSET -0.005940 -0.852616 -0.051576
				CHANNELS 3 Xrotation Yrotation Zrotation
				JOINT mixamorig:RightToeBase
				{
					OFFSET -0.031537 -0.214911 0.248182
					CHANNELS 6 Xposition Yposition Zposition Xrotation Yrotation Zrotation
					End Site
					{
						OFFSET -0.045720 0.003764 0.326606
					}
				}
			}
		}
	}
}
MOTION
Frames: 4
Frame Time: 0.033333
0.004255 2.073045 -0.032703 -3.742523 -5.221837 -3.543742 -0.001948 0.198048 -0.038897 3.280915 1.529716 2.508498 1.151889 0.336567 1.553486 1.126011 0.361144 1.556219 0.005730 0.310620 0.037617 5.626475 -0.084482 0.451443 0.010419 0.222311 0.065134 -7.563198 1.370465 -0.084392 0.129541 0.188949 0.026782 1.046972 -17.442222 -12.319748 3.916215 -19.989283 -69.765260 0.551277 -0.000001 -0.000000 -0.000002 -1.459357 -0.000000 -33.230469 -1.366239 -6.186307 -0.126373 0.192154 0.021809 1.208280 15.344266 14.705385 13.158898 27.555141 58.785130 -0.558427 -0.000001 -0.000000 0.000002 6.693739 0.000002 -0.503137 0.000000 -0.000000 -20.179109 -0.513386 6.782865 0.185244 -0.138385 0.026620 -11.160227 14.636298 10.534177 12.996414 2.003957 4.197277 0.893444 0.559769 -7.475159 -4.922193 0.000016 0.000000 -0.184403 -0.144116 0.001603 1.499740 -10.343521 3.599359 0.005492 -0.848120 0.010027 6.003212 -9.774234 -3.276886 -3.258330 -1.620246 2.982749 -0.031537 -0.214911 0.248182 -7.282874 -0.000002 -0.000016 
0.004310 2.073050 -0.032854 -3.742565 -5.239305 -3.545760 -0.001948 0.198048 -0.038897 3.280835 1.529731 2.509373 1.134997 0.336566 1.553487 1.108871 0.361146 1.556219 0.005730 0.310620 0.037617 5.626473 -0.084481 0.451443 0.010419 0.222311 0.065135 -7.502316 1.370946 -0.070869 0.129541 0.188949 0.026781 1.045474 -17.491819 -12.338449 4.216143 -20.442618 -69.444377 0.551277 -0.000001 -0.000000 0.000002 -1.740648 -0.000018 -33.608427 -1.472582 -6.213019 -0.126373 0.192154 0.021809 1.212774 15.352498 14.680059 13.461566 28.156739 58.183697 -0.558427 -0.000001 -0.000000 0.000008 7.104294 0.000008 -0.503137 0.000000 -0.000000 -20.554017 -0.731389 6.918694 0.185244 -0.138385 0.026620 -11.158461 14.636515 10.534861 12.980124 2.024433 4.197323 0.895418 0.559554 -7.487620 -4.922199 0.000007 0.000000 -0.184403 -0.144116 0.001603 1.492150 -10.344924 3.608591 0.005492 -0.848120 0.010027 5.998580 -9.766918 -3.290410 -3.247779 -1.620785 2.984165 -0.031537 -0.214911 0.248182 -7.282890 0.000013 -0.000015 
0.004399 2.073037 -0.033177 -3.742922 -5.290622 -3.548502 -0.001948 0.198048 -0.038897 3.280899 1.528188 2.508741 1.116574 0.333698 1.553486 1.090266 0.360558 1.556219 0.005730 0.310620 0.037617 5.626475 -0.084481 0.451443 0.010419 0.222310 0.065134 -7.446778 1.366631 -0.063342 0.129541 0.188949 0.026781 1.047743 -17.527934 -12.335742 4.633965 -21.047573 -69.025803 0.551277 -0.000001 -0.000000 -0.000011 -2.229694 0.000001 -34.215037 -1.716496 -6.375950 -0.126373 0.192154 0.021809 1.223136 15.416627 14.613832 13.491175 28.586102 57.591943 -0.558426 -0.000001 -0.000000 0.000002 7.795355 0.000012 -0.503137 -0.000000 -0.000000 -21.125104 -0.937340 7.238488 0.185244 -0.138385 0.026620 -11.160272 14.636059 10.546102 12.972040 2.076420 4.186899 0.898766 0.559549 -7.499514 -4.922205 0.000003 -0.000004 -0.184403 -0.144116 0.001603 1.462880 -10.337876 3.611075 0.005492 -0.848120 0.010027 6.020170 -9.731889 -3.297421 -3.242354 -1.620543 2.980186 -0.031537 -0.214911 0.248182 -7.294055 -0.000017 -0.000020 
0.004522 2.073023 -0.033713 -3.743540 -5.370389 -3.551885 -0.001948 0.198048 -0.038898 3.281084 1.524776 2.506872 1.097766 0.326816 1.544473 1.071338 0.355390 1.546682 0.005730 0.310620 0.037617 5.626472 -0.084480 0.455854 0.010419 0.222311 0.065134 -7.404465 1.346939 -0.052299 0.129541 0.188949 0.026781 1.049338 -17.560828 -12.327645 5.098463 -21.674302 -68.501265 0.551278 -0.000001 -0.000000 -0.000012 -2.999775 0.000008 -34.969216 -2.253152 -6.784287 -0.126373 0.192154 0.021809 1.243040 15.548852 14.498808 13.092350 28.754120 57.080075 -0.558427 -0.000001 -0.000000 0.000007 8.896671 -0.000003 -0.503137 0.000000 -0.000000 -21.830516 -0.939866 7.633209 0.185244 -0.138386 0.026620 -11.154182 14.630897 10.556343 12.962581 2.157943 4.174831 0.909631 0.559739 -7.502497 -4.922201 0.000006 0.000000 -0.184403 -0.144116 0.001603 1.423002 -10.327161 3.604724 0.005492 -0.848120 0.010027 6.053624 -9.675303 -3.296021 -3.237623 -1.619829 2.972696 -0.031537 -0.214911 0.248182 -7.302079 -0.000003 -0.000015 
